<svg xmlns="http://www.w3.org/2000/svg" width="15" height="18" viewBox="0 0 15 18">
    <path fill="#000" fill-opacity=".54" fill-rule="nonzero" d="M7.5 12.316c-4.144 0-7.5 1.696-7.5 3.79V18h15v-1.895c0-2.093-3.356-3.79-7.5-3.79zM3.75 6.632c0 2.092 1.679 3.79 3.75 3.79 2.071 0 3.75-1.698 3.75-3.79h-7.5zM7.031 0c-.281 0-.468.199-.468.474v2.842h-.938V.947s-2.11.815-2.11 3.553c0 0-.703.133-.703 1.184h9.376c-.047-1.051-.704-1.184-.704-1.184 0-2.738-2.109-3.553-2.109-3.553v2.369h-.938V.474C8.438.199 8.26 0 7.97 0H7.03z"/>
</svg>
