<svg xmlns="http://www.w3.org/2000/svg" width="105" height="19" viewBox="0 0 105 19"><g fill="#000" fill-rule="evenodd"><path fill-rule="nonzero" d="M4.424 5.908L6.457 7.08v2.347l-2.033 1.174-2.032-1.174V7.081l2.032-1.173zm-4.33-.153v5l4.33 2.5 4.33-2.5v-5l-4.33-2.5-4.33 2.5z"/><path d="M18.238 4.031c1.003 0 1.896.419 2.68 1.256.784.838 1.176 1.89 1.176 3.16 0 1.27-.392 2.33-1.176 3.184-.784.854-1.701 1.28-2.752 1.28-1.05 0-1.896-.421-2.536-1.264v4.24h-2.4V4.175h2.4v.96c.736-.736 1.605-1.104 2.608-1.104zm-2.64 4.464c0 .694.195 1.262.584 1.704.39.443.861.664 1.416.664.555 0 1.04-.221 1.456-.664.416-.442.624-1.01.624-1.704 0-.693-.203-1.274-.608-1.744-.405-.47-.89-.704-1.456-.704-.565 0-1.043.232-1.432.696-.39.464-.584 1.048-.584 1.752zm17.966 3.04c-.97.918-2.11 1.376-3.416 1.376-1.307 0-2.387-.402-3.24-1.208-.853-.805-1.28-1.885-1.28-3.24 0-1.354.435-2.432 1.304-3.232.87-.8 1.896-1.2 3.08-1.2 1.184 0 2.19.358 3.016 1.072.827.715 1.24 1.696 1.24 2.944v1.28h-6.272c.075.47.32.854.736 1.152.416.299.885.448 1.408.448.843 0 1.536-.282 2.08-.848l1.344 1.456zm-1.728-3.92c-.053-.512-.245-.906-.576-1.184-.33-.277-.733-.416-1.208-.416s-.91.144-1.304.432a1.652 1.652 0 0 0-.688 1.168h3.776zm8.782.368v4.8h-2.4V4.175h2.4v.96c.726-.736 1.542-1.104 2.448-1.104.907 0 1.667.32 2.28.96.614.64.92 1.494.92 2.56v5.232h-2.4V7.92c0-1.322-.485-1.984-1.456-1.984-.48 0-.898.174-1.256.52-.357.347-.536.856-.536 1.528zm12.83-4.304v.576h2.08v1.728h-2.08v6.8h-2.415v-6.8h-1.008V4.255h1.008v-.528c0-.938.285-1.682.856-2.232.57-.55 1.28-.824 2.128-.824.848 0 1.618.32 2.312.96l-.864 1.616c-.352-.405-.742-.608-1.168-.608a.786.786 0 0 0-.608.264c-.16.176-.24.435-.24.776zm7.503 4.8c0 .704.2 1.278.6 1.72.4.443.912.664 1.536.664s1.136-.221 1.536-.664c.4-.442.6-1.016.6-1.72s-.2-1.28-.6-1.728c-.4-.448-.912-.672-1.536-.672s-1.136.224-1.536.672c-.4.448-.6 1.024-.6 1.728zm6.688 0c0 1.248-.432 2.299-1.296 3.152-.864.854-1.95 1.28-3.256 1.28-1.307 0-2.392-.426-3.256-1.28-.864-.853-1.296-1.904-1.296-3.152 0-1.248.432-2.301 1.296-3.16.864-.858 1.95-1.288 3.256-1.288 1.306 0 2.392.43 3.256 1.288.864.859 1.296 1.912 1.296 3.16zm8.526-2.192c-.715 0-1.248.254-1.6.76-.352.507-.528 1.176-.528 2.008v3.728h-2.4V4.175h2.4v1.136c.31-.352.696-.65 1.16-.896a3.152 3.152 0 0 1 1.416-.384l.016 2.256h-.464zm8.398 4.496c.8 0 1.52-.4 2.16-1.2l1.424 1.6c-1.11 1.152-2.31 1.728-3.6 1.728s-2.381-.408-3.272-1.224c-.89-.816-1.336-1.882-1.336-3.2 0-1.317.45-2.39 1.352-3.216.902-.826 1.97-1.24 3.208-1.24a5 5 0 0 1 1.88.384 4.753 4.753 0 0 1 1.672 1.136l-1.248 1.632a2.836 2.836 0 0 0-1.016-.768 2.868 2.868 0 0 0-1.192-.272c-.63 0-1.17.206-1.624.616-.453.41-.68.982-.68 1.712s.227 1.299.68 1.704c.454.406.984.608 1.592.608zm14.862.752c-.97.918-2.109 1.376-3.416 1.376-1.306 0-2.386-.402-3.24-1.208-.853-.805-1.28-1.885-1.28-3.24 0-1.354.435-2.432 1.304-3.232.87-.8 1.896-1.2 3.08-1.2 1.184 0 2.19.358 3.016 1.072.827.715 1.24 1.696 1.24 2.944v1.28h-6.272c.075.47.32.854.736 1.152.416.299.886.448 1.408.448.843 0 1.536-.282 2.08-.848l1.344 1.456zm-1.728-3.92c-.053-.512-.245-.906-.576-1.184-.33-.277-.733-.416-1.208-.416-.474 0-.909.144-1.304.432a1.652 1.652 0 0 0-.688 1.168h3.776z"/></g></svg>